# xmcd
#
# Track frame offsets:
#	150
#	18752
#	28842
#	42137
#	53680
#	68957
#	82155
#	95335
#	109335
#	122700
#	135160
#	148465
#	163827
#	177060
#	192325
#
# Disc length: 2831 seconds
#
# Revision: 0
# Processed by: cddbd v1.5.1PL2 Copyright (c) Steve Scherf et al.
# Submitted via: dBpowerAMP V4.0
#
DISCID=cf0b0d0f
DTITLE=Country All-Stars, The - Tribute to Tradition
DYEAR=1900
DGENRE=Country
TTITLE0=San Antonio Rose
TTITLE1=I Love Ya Honey
TTITLE2=King of the Road
TTITLE3=Act Naturally
TTITLE4=Cryin' Time
TTITLE5=My Shoes Keep Walking Back to You
TTITLE6=Honky Tonk Blues
TTITLE7=Take Me Back to Tusla
TTITLE8=Sing Me Back Home
TTITLE9=Workin' Man's Blues
TTITLE10=Oh Lonesome Me
TTITLE11=Together Again
TTITLE12=San Antonio Stroll
TTITLE13=Blue Shadows on the Trail
TTITLE14=Riders in the Sky
EXTD=
EXTT0=
EXTT1=
EXTT2=
EXTT3=
EXTT4=
EXTT5=
EXTT6=
EXTT7=
EXTT8=
EXTT9=
EXTT10=
EXTT11=
EXTT12=
EXTT13=
EXTT14=
PLAYORDER=
